<?xml version="1.0" encoding="utf-8"?><svg viewBox="0 0 78 80" xmlns="http://www.w3.org/2000/svg" xmlns:xlink="http://www.w3.org/1999/xlink"><style>:root>svg{display:none}:root>svg:target{display:block}</style><svg viewBox="0 0 24 24" id="cross" xmlns="http://www.w3.org/2000/svg"><path d="M3.515 3.515l16.97 16.97m-16.97 0l16.97-16.97" stroke="#000" stroke-width="2"/></svg><svg viewBox="0 0 32 32" id="eat" xmlns="http://www.w3.org/2000/svg"><path d="M6.5 2v5.5c0 1.486 1.08 2.632 2.5 2.91V2c0-1.29 2-1.29 2 0v8.41c1.42-.278 2.5-1.424 2.5-2.91V2c0-1.29 2-1.29 2 0v5.5c0 2.597-1.988 4.597-4.5 4.935V30c0 1.29-2 1.29-2 0V12.435c-2.512-.338-4.5-2.338-4.5-4.935V2c0-1.29 2-1.29 2 0zm17.207-.707C23.09.676 22 1.128 22 2v28c0 1.29 2 1.29 2 0v-9h3.5a1 1 0 001-1c0-5.492-.763-9.72-1.734-12.79-.962-3.04-2.15-5.009-3.059-5.917zM26.491 19H24V5.519c1.855 4.195 2.41 8.94 2.491 13.481z" fill="#fff"/></svg><svg fill="none" viewBox="0 0 22 22" id="facebook" xmlns="http://www.w3.org/2000/svg"><path d="M16.5 1.833h-2.75a4.63 4.63 0 00-3.24 1.317 4.45 4.45 0 00-1.343 3.177v2.697h-2.75v3.595h2.75v7.191h3.666v-7.19h2.75l.917-3.596h-3.667V6.327a.89.89 0 01.269-.635.926.926 0 01.648-.263h2.75V1.833z" stroke="currentColor" stroke-width="1.1" stroke-linecap="round" stroke-linejoin="round"/></svg><svg viewBox="0 0 78 80" id="gift" xmlns="http://www.w3.org/2000/svg"><path d="M64.016 34.713H14.03c-1.754 0-3.182-1.418-3.182-3.16v-9.469c0-1.742 1.428-3.16 3.182-3.16h49.984c1.754 0 3.18 1.418 3.18 3.16v9.47c0 1.741-1.426 3.159-3.18 3.159zM14.03 21.346a.751.751 0 00-.744.738v9.47c0 .406.334.737.744.737h49.984a.74.74 0 00.743-.738v-9.469a.75.75 0 00-.743-.738H14.03zM57.045 67.15H20.999c-3.377 0-6.125-2.73-6.125-6.087V33.502c0-.669.546-1.211 1.219-1.211s1.219.542 1.219 1.21v27.562c0 2.02 1.654 3.664 3.687 3.664h36.046c2.032 0 3.686-1.644 3.686-3.664V33.502c0-.669.546-1.211 1.219-1.211.672 0 1.218.542 1.218 1.21v27.562c0 3.356-2.747 6.086-6.123 6.086zm-18.022 0a1.215 1.215 0 01-1.22-1.212V33.502c0-.669.547-1.211 1.22-1.211.672 0 1.218.542 1.218 1.21v32.436c0 .67-.545 1.212-1.218 1.212zM23.811 21.342c-3.814-2.054-5.238-6.809-3.173-10.6 2.064-3.79 6.848-5.205 10.665-3.155 5.814 3.13 8.954 11.86 9.084 12.23l-2.3.804c-.029-.082-2.961-8.221-7.944-10.903-2.635-1.416-5.937-.439-7.36 2.177-1.426 2.617-.444 5.9 2.19 7.317l-1.162 2.13z" fill="#fff"/><path d="M54.231 21.342l-1.16-2.13a5.376 5.376 0 002.622-3.208 5.327 5.327 0 00-.431-4.109 5.382 5.382 0 00-3.226-2.604 5.426 5.426 0 00-4.134.427c-4.982 2.681-7.915 10.82-7.944 10.902l-2.3-.803c.131-.37 3.27-9.1 9.084-12.23a7.859 7.859 0 015.99-.617 7.8 7.8 0 014.674 3.772 7.72 7.72 0 01.623 5.952 7.788 7.788 0 01-3.798 4.648zm7.719 29.59H16.093a1.215 1.215 0 01-1.219-1.211c0-.669.546-1.211 1.219-1.211H61.95c.672 0 1.218.542 1.218 1.21 0 .67-.545 1.212-1.218 1.212z" fill="#fff"/></svg></svg>